<?xml version="1.0" standalone="no"?>
<!DOCTYPE svg PUBLIC "-//W3C//DTD SVG 20010904//EN"
 "http://www.w3.org/TR/2001/REC-SVG-20010904/DTD/svg10.dtd">
<svg version="1.0" xmlns="http://www.w3.org/2000/svg"
 width="308.000000pt" height="120.000000pt" viewBox="0 0 308.000000 120.000000"
 preserveAspectRatio="xMidYMid meet">
<metadata>
Created by potrace 1.16, written by Peter Selinger 2001-2019
</metadata>
<g transform="translate(0.000000,120.000000) scale(0.100000,-0.100000)"
fill="#000000" stroke="none">
<path d="M535 1073 c-210 -45 -395 -162 -478 -304 -61 -103 -74 -268 -28 -357
61 -119 196 -192 429 -232 138 -24 218 -25 320 -4 205 42 345 166 387 345 29
124 11 229 -54 315 -120 160 -339 204 -586 116 -84 -29 -95 -37 -95 -68 0 -30
7 -30 78 0 171 71 346 67 476 -9 107 -63 183 -191 173 -292 -7 -71 -58 -163
-121 -220 -102 -92 -232 -136 -401 -135 -223 0 -434 68 -536 173 -114 117
-103 251 31 393 128 134 304 213 520 234 72 7 75 8 78 35 l3 27 -63 -1 c-35 0
-94 -7 -133 -16z"/>
<path d="M277 723 c-11 -11 -8 -203 3 -203 6 0 10 15 10 34 0 18 3 48 6 65 6
31 7 31 37 -34 17 -36 33 -65 37 -65 4 0 21 30 36 67 25 58 29 64 35 42 4 -13
7 -43 8 -66 1 -36 4 -43 21 -43 18 0 20 7 20 74 0 106 -8 138 -33 134 -15 -2
-28 -21 -46 -65 -14 -35 -29 -63 -32 -63 -4 0 -19 29 -34 65 -26 61 -47 79
-68 58z"/>
<path d="M730 625 l0 -105 50 0 c69 0 110 22 110 59 0 16 -7 34 -15 41 -11 9
-13 16 -5 24 17 17 11 54 -12 70 -14 10 -44 16 -75 16 l-53 0 0 -105z"/>
</g>
</svg>
